# xmcd
#
# Track frame offsets: 
#        185
#        13525
#        38390
#        65840
#        98602
#        124492
#        138860
#        153722
#        172542
#        198052
#        228177
#        240950
#        256525
#        273922
#
# Disc length: 4254 seconds
#
# Revision: 2
# Processed by: cddbd v1.5.1PL2 Copyright (c) Steve Scherf et al.
# Submitted via: ExactAudioCopy v0.95b2
#
DISCID=9f109c0e
DTITLE=Raspberry Jam - Chi-Rho
DYEAR=1993
DGENRE=Christian Alternative
TTITLE0=God Is
TTITLE1=Gotta Love
TTITLE2=Brilliant Fervor
TTITLE3=Love Eternal
TTITLE4=Hand Me Down Hate
TTITLE5=Break My Heart
TTITLE6=Everything We Need
TTITLE7=Line
TTITLE8=Open Your Heart
TTITLE9=The Cross
TTITLE10=Raspberry Jam
TTITLE11=Nathan's Funhouse
TTITLE12=AKA Jesus
TTITLE13=Gotta Love
EXTD=
EXTT0=
EXTT1=
EXTT2=
EXTT3=
EXTT4=
EXTT5=
EXTT6=
EXTT7=
EXTT8=
EXTT9=
EXTT10=
EXTT11=
EXTT12=
EXTT13=
PLAYORDER=
